<svg width="705" height="391" viewBox="0 0 705 391" fill="none" xmlns="http://www.w3.org/2000/svg">
<!-- Github @MehtabAsHellic <mehtabasmoon@gmail.com> -->
<rect width="705" height="391" fill="white"/>
<path d="M407.18 275H404.848C404.32 274.516 403.935 273.94 403.693 273.273C403.451 272.606 403.33 271.909 403.33 271.183C403.33 270.45 403.477 269.727 403.77 269.016C404.063 268.305 404.474 267.733 405.002 267.3H407.675V268.62H405.629C405.438 268.84 405.273 269.188 405.134 269.665C404.995 270.134 404.925 270.637 404.925 271.172C404.925 271.7 404.987 272.206 405.112 272.69C405.244 273.167 405.405 273.511 405.596 273.724H406.652V270.732H408.104V272.58C408.104 273.592 407.796 274.399 407.18 275ZM416.84 270.534H416.015C415.905 270.666 415.813 270.849 415.74 271.084C415.674 271.319 415.641 271.546 415.641 271.766H417.214C417.228 271.546 417.199 271.319 417.126 271.084C417.052 270.842 416.957 270.659 416.84 270.534ZM418.336 273.845V275H415.542C415.028 274.655 414.665 274.23 414.453 273.724C414.247 273.211 414.145 272.694 414.145 272.173C414.145 270.97 414.599 270.039 415.509 269.379H417.291C417.782 269.738 418.116 270.12 418.292 270.523C418.468 270.926 418.556 271.333 418.556 271.744C418.556 272.155 418.523 272.507 418.457 272.8H415.718C415.74 272.969 415.802 273.163 415.905 273.383C416.015 273.596 416.132 273.75 416.257 273.845H418.336ZM427.126 269.379H428.292C428.614 269.79 428.834 270.2 428.952 270.611C429.069 271.022 429.128 271.535 429.128 272.151V275H427.665V272.041C427.665 271.344 427.569 270.842 427.379 270.534H426.147V275H424.684V269.379H425.828L426.026 269.775C426.187 269.628 426.337 269.526 426.477 269.467C426.623 269.408 426.84 269.379 427.126 269.379ZM437.964 270.534H437.139C437.029 270.666 436.938 270.849 436.864 271.084C436.798 271.319 436.765 271.546 436.765 271.766H438.338C438.353 271.546 438.324 271.319 438.25 271.084C438.177 270.842 438.082 270.659 437.964 270.534ZM439.46 273.845V275H436.666C436.153 274.655 435.79 274.23 435.577 273.724C435.372 273.211 435.269 272.694 435.269 272.173C435.269 270.97 435.724 270.039 436.633 269.379H438.415C438.907 269.738 439.24 270.12 439.416 270.523C439.592 270.926 439.68 271.333 439.68 271.744C439.68 272.155 439.647 272.507 439.581 272.8H436.842C436.864 272.969 436.927 273.163 437.029 273.383C437.139 273.596 437.257 273.75 437.381 273.845H439.46ZM446.187 269.379H448.618V270.534H446.902L447.947 272.085C448.416 272.752 448.676 273.211 448.728 273.46C448.757 273.577 448.772 273.698 448.772 273.823C448.772 274.344 448.577 274.736 448.189 275H445.384V273.845H447.397L446.22 272.118C446.168 272.037 446.088 271.924 445.978 271.777C445.875 271.63 445.794 271.513 445.736 271.425C445.677 271.33 445.637 271.26 445.615 271.216C445.593 271.172 445.563 271.117 445.527 271.051C445.49 270.978 445.464 270.915 445.45 270.864C445.42 270.725 445.406 270.611 445.406 270.523C445.406 269.988 445.666 269.606 446.187 269.379ZM454.872 275V269.379H456.324V275H454.872ZM454.872 267.3H456.324V268.785H454.872V267.3ZM463.208 269.379H465.639V270.534H463.923L464.968 272.085C465.437 272.752 465.697 273.211 465.749 273.46C465.778 273.577 465.793 273.698 465.793 273.823C465.793 274.344 465.598 274.736 465.21 275H462.405V273.845H464.418L463.241 272.118C463.189 272.037 463.109 271.924 462.999 271.777C462.896 271.63 462.815 271.513 462.757 271.425C462.698 271.33 462.658 271.26 462.636 271.216C462.614 271.172 462.584 271.117 462.548 271.051C462.511 270.978 462.485 270.915 462.471 270.864C462.441 270.725 462.427 270.611 462.427 270.523C462.427 269.988 462.687 269.606 463.208 269.379ZM482.752 275H480.42C479.892 274.516 479.507 273.94 479.265 273.273C479.023 272.606 478.902 271.909 478.902 271.183C478.902 270.45 479.049 269.727 479.342 269.016C479.635 268.305 480.046 267.733 480.574 267.3H483.247V268.62H481.201C481.01 268.84 480.845 269.188 480.706 269.665C480.567 270.134 480.497 270.637 480.497 271.172C480.497 271.7 480.559 272.206 480.684 272.69C480.816 273.167 480.977 273.511 481.168 273.724H482.224V270.732H483.676V272.58C483.676 273.592 483.368 274.399 482.752 275ZM492.412 270.534H491.587C491.477 270.666 491.385 270.849 491.312 271.084C491.246 271.319 491.213 271.546 491.213 271.766H492.786C492.8 271.546 492.771 271.319 492.698 271.084C492.624 270.842 492.529 270.659 492.412 270.534ZM493.908 273.845V275H491.114C490.6 274.655 490.237 274.23 490.025 273.724C489.819 273.211 489.717 272.694 489.717 272.173C489.717 270.97 490.171 270.039 491.081 269.379H492.863C493.354 269.738 493.688 270.12 493.864 270.523C494.04 270.926 494.128 271.333 494.128 271.744C494.128 272.155 494.095 272.507 494.029 272.8H491.29C491.312 272.969 491.374 273.163 491.477 273.383C491.587 273.596 491.704 273.75 491.829 273.845H493.908ZM502.698 269.379H503.864C504.186 269.79 504.406 270.2 504.524 270.611C504.641 271.022 504.7 271.535 504.7 272.151V275H503.237V272.041C503.237 271.344 503.141 270.842 502.951 270.534H501.719V275H500.256V269.379H501.4L501.598 269.775C501.759 269.628 501.909 269.526 502.049 269.467C502.195 269.408 502.412 269.379 502.698 269.379ZM513.536 270.534H512.711C512.601 270.666 512.51 270.849 512.436 271.084C512.37 271.319 512.337 271.546 512.337 271.766H513.91C513.925 271.546 513.896 271.319 513.822 271.084C513.749 270.842 513.654 270.659 513.536 270.534ZM515.032 273.845V275H512.238C511.725 274.655 511.362 274.23 511.149 273.724C510.944 273.211 510.841 272.694 510.841 272.173C510.841 270.97 511.296 270.039 512.205 269.379H513.987C514.479 269.738 514.812 270.12 514.988 270.523C515.164 270.926 515.252 271.333 515.252 271.744C515.252 272.155 515.219 272.507 515.153 272.8H512.414C512.436 272.969 512.499 273.163 512.601 273.383C512.711 273.596 512.829 273.75 512.953 273.845H515.032ZM521.392 275V269.379H522.437L522.712 269.973C523.005 269.577 523.375 269.379 523.823 269.379H524.252V270.853H522.855V275H521.392ZM532.709 272.459H531.532C531.378 272.65 531.301 272.888 531.301 273.174C531.301 273.46 531.381 273.684 531.543 273.845H532.709V272.459ZM530.344 269.379H533.072C533.512 269.643 533.801 269.947 533.941 270.292C534.08 270.629 534.15 271.091 534.15 271.678V273.328C534.15 273.937 534.164 274.494 534.194 275H532.94L532.742 274.604C532.456 274.868 532.052 275 531.532 275H530.839C530.215 274.589 529.904 273.999 529.904 273.229C529.904 272.452 530.223 271.839 530.861 271.392H531.895C532.181 271.392 532.448 271.48 532.698 271.656V271.106C532.698 270.82 532.573 270.629 532.324 270.534H530.344V269.379ZM541.938 267.3V275H540.486V267.3H541.938ZM559.13 275H556.798C556.27 274.516 555.885 273.94 555.643 273.273C555.401 272.606 555.28 271.909 555.28 271.183C555.28 270.45 555.427 269.727 555.72 269.016C556.013 268.305 556.424 267.733 556.952 267.3H559.625V268.62H557.579C557.388 268.84 557.223 269.188 557.084 269.665C556.945 270.134 556.875 270.637 556.875 271.172C556.875 271.7 556.937 272.206 557.062 272.69C557.194 273.167 557.355 273.511 557.546 273.724H558.602V270.732H560.054V272.58C560.054 273.592 559.746 274.399 559.13 275ZM568.79 270.534H567.965C567.855 270.666 567.763 270.849 567.69 271.084C567.624 271.319 567.591 271.546 567.591 271.766H569.164C569.178 271.546 569.149 271.319 569.076 271.084C569.002 270.842 568.907 270.659 568.79 270.534ZM570.286 273.845V275H567.492C566.978 274.655 566.615 274.23 566.403 273.724C566.197 273.211 566.095 272.694 566.095 272.173C566.095 270.97 566.549 270.039 567.459 269.379H569.241C569.732 269.738 570.066 270.12 570.242 270.523C570.418 270.926 570.506 271.333 570.506 271.744C570.506 272.155 570.473 272.507 570.407 272.8H567.668C567.69 272.969 567.752 273.163 567.855 273.383C567.965 273.596 568.082 273.75 568.207 273.845H570.286ZM579.076 269.379H580.242C580.564 269.79 580.784 270.2 580.902 270.611C581.019 271.022 581.078 271.535 581.078 272.151V275H579.615V272.041C579.615 271.344 579.519 270.842 579.329 270.534H578.097V275H576.634V269.379H577.778L577.976 269.775C578.137 269.628 578.287 269.526 578.427 269.467C578.573 269.408 578.79 269.379 579.076 269.379ZM589.914 270.534H589.089C588.979 270.666 588.888 270.849 588.814 271.084C588.748 271.319 588.715 271.546 588.715 271.766H590.288C590.303 271.546 590.274 271.319 590.2 271.084C590.127 270.842 590.032 270.659 589.914 270.534ZM591.41 273.845V275H588.616C588.103 274.655 587.74 274.23 587.527 273.724C587.322 273.211 587.219 272.694 587.219 272.173C587.219 270.97 587.674 270.039 588.583 269.379H590.365C590.857 269.738 591.19 270.12 591.366 270.523C591.542 270.926 591.63 271.333 591.63 271.744C591.63 272.155 591.597 272.507 591.531 272.8H588.792C588.814 272.969 588.877 273.163 588.979 273.383C589.089 273.596 589.207 273.75 589.331 273.845H591.41ZM597.769 275V269.379H598.814L599.089 269.973C599.383 269.577 599.753 269.379 600.2 269.379H600.629V270.853H599.232V275H597.769ZM609.086 272.459H607.909C607.755 272.65 607.678 272.888 607.678 273.174C607.678 273.46 607.759 273.684 607.92 273.845H609.086V272.459ZM606.721 269.379H609.449C609.889 269.643 610.179 269.947 610.318 270.292C610.458 270.629 610.527 271.091 610.527 271.678V273.328C610.527 273.937 610.542 274.494 610.571 275H609.317L609.119 274.604C608.833 274.868 608.43 275 607.909 275H607.216C606.593 274.589 606.281 273.999 606.281 273.229C606.281 272.452 606.6 271.839 607.238 271.392H608.272C608.558 271.392 608.826 271.48 609.075 271.656V271.106C609.075 270.82 608.951 270.629 608.701 270.534H606.721V269.379ZM617.022 272.547V270.534H616.263V269.379H617.022V267.85H618.485V269.379H619.387V270.534H618.485V272.899C618.485 273.346 618.562 273.662 618.716 273.845H619.387V275H617.825C617.436 274.641 617.201 274.252 617.121 273.834C617.055 273.482 617.022 273.053 617.022 272.547ZM628.745 275H626.347C625.614 274.318 625.247 273.387 625.247 272.206C625.247 271.612 625.328 271.095 625.489 270.655C625.658 270.215 625.922 269.79 626.281 269.379H628.855C629.236 269.819 629.497 270.248 629.636 270.666C629.775 271.077 629.845 271.59 629.845 272.206C629.845 273.387 629.478 274.318 628.745 275ZM627.128 273.845H627.964C628.228 273.332 628.36 272.749 628.36 272.096C628.36 271.443 628.224 270.923 627.953 270.534H627.128C626.864 270.908 626.732 271.44 626.732 272.129C626.732 272.811 626.864 273.383 627.128 273.845ZM636.033 275V269.379H637.078L637.353 269.973C637.647 269.577 638.017 269.379 638.464 269.379H638.893V270.853H637.496V275H636.033Z" fill="black"/>
<path d="M402.688 239.512H419.992C422.008 236.936 423.296 233.968 423.856 230.608C424.416 227.136 424.696 220.192 424.696 209.776V141.4H447.712V201.88C447.712 209.384 447.544 215.208 447.208 219.352C446.984 223.496 446.312 228.2 445.192 233.464C443.064 243.432 437.744 251.944 429.232 259H402.688V239.512ZM479.661 259V141.4H539.973V161.56H502.677V189.616H535.941V209.104H502.677V239.512H540.645V259H479.661ZM622.869 259L591.453 193.984L590.613 194.32L591.621 214.144V259H570.453V141.4H587.421L618.333 208.936L619.173 208.6L617.325 187.936V141.4H638.493V259H622.869Z" fill="url(#paint0_linear_4_2)"/>
<path d="M178.709 246.5V208.5L196.209 228.5L217.709 243L250.209 261L270.709 268.5L298.709 274.5L343.209 276.5L368.209 271V276.5L355.709 297.5L332.709 318L301.209 341.5L272.209 353L236.209 361L226.709 353L205.209 327.5L190.209 297.5L178.709 265V246.5Z" fill="white" stroke="black"/>
<path d="M340.209 115.5L347.709 98.5L366.209 118.5L374.209 147L382.5 169L385.209 200L381.709 236.5L366.209 274.5L321.209 278.5L290.709 274.5L255.209 263.5L212.709 240L198.209 225L232.709 216.5L264.209 200L297.209 172L321.209 147L340.209 115.5Z" fill="white" stroke="black"/>
<path d="M165.709 38.5L194.709 32.5L210.709 54.5L222.209 80.5L233.209 123L236.209 159L231.209 192L210.709 171.5L188.209 151.5L167.709 142L147.709 133.5L117.209 131H89.7087L77.2088 133.5C74.2355 132.509 68.8083 130.82 67.4876 130.825C67.3511 131.025 67.2551 131.093 67.2088 131C67.1486 130.88 67.2537 130.826 67.4876 130.825C68.5303 129.295 71.9404 120.01 73.7088 115L86.7088 94.5L105.709 75L134.709 54.5L165.709 38.5Z" fill="white"/>
<path d="M194.709 32.5L165.709 38.5L134.709 54.5L105.709 75L86.7088 94.5L73.7088 115C71.7088 120.667 67.6088 131.8 67.2088 131C66.8088 130.2 73.7088 132.333 77.2088 133.5L89.7087 131H117.209L147.709 133.5L167.709 142L188.209 151.5L210.709 171.5L231.209 192L236.209 159L233.209 123L222.209 80.5L210.709 54.5L194.709 32.5Z" stroke="black"/>
<path d="M97.3224 130L69.0217 134L63.2087 146.5L58.7126 172.65L58.7126 217.43L69.0217 252.053L85.6901 280.969L97.3223 254.414L116.209 228L128.709 213.5L145.709 199.5L170.209 186.5L184.709 182.66L198.709 180.5C195.036 178.058 210.399 175.556 212.876 175.852C213.083 176.033 213.2 176.091 213.209 176C213.215 175.927 213.097 175.878 212.876 175.852C211.052 174.257 202.233 163.085 198.709 159L186.709 151.924L166.709 142.5L136.709 134L97.3224 130Z" fill="white"/>
<path d="M69.0217 134L97.3224 130L136.709 134L166.709 142.5L186.709 151.924L198.709 159C202.634 163.55 213.127 176.891 213.209 176C213.29 175.109 194.709 177.84 198.709 180.5L184.709 182.66L170.209 186.5L145.709 199.5L128.709 213.5L116.209 228L97.3223 254.414L85.6901 280.969L69.0217 252.053L58.7126 217.43L58.7126 172.65L63.2087 146.5L69.0217 134Z" stroke="black"/>
<path d="M164.709 188.5L185.209 184.5L179.209 208.5L176.209 230.5L179.209 260L191.209 296.5L215.709 338.5L234.709 360H204.709L164.709 347L131.209 329L103.209 305L84.2087 280.5L88.7087 272.5L99.2087 254.5L120.709 224.5L141.209 201L164.709 188.5Z" fill="url(#paint1_linear_4_2)" stroke="black"/>
<path d="M209.168 48.3021L209.146 48.2509L209.113 48.2059L197.691 32.5H237.141L284.008 45.4631L323.895 69.8941L347.623 94.117L342.759 106.279L318.31 147.693L280.369 186.133L254.955 207.56L237.039 214.03L237.027 214.034L237.015 214.039L228.371 217.678L234.199 186.598L234.2 186.592L237.699 169.098L237.712 169.033L237.708 168.967L234.208 116.467L234.204 116.406L234.185 116.347L221.685 77.3474L221.677 77.3243L221.668 77.3021L209.168 48.3021Z" fill="url(#paint2_linear_4_2)" stroke="black"/>
<path d="M232.788 194.591C240.288 164.925 243.688 90.7912 193.288 31.5912" stroke="black" stroke-width="6"/>
<path d="M226.437 220.239C255.744 211.378 323.209 165.5 347.209 93" stroke="black" stroke-width="6"/>
<path d="M199.103 227.42C219.012 250.679 293.288 293.091 370.788 270.091" stroke="black" stroke-width="6"/>
<path d="M215.846 178.427C196.578 154.258 155.788 119.091 66.2878 134.091" stroke="black" stroke-width="6"/>
<path d="M191.275 182.271C160.583 185.923 123.788 199.591 85.2878 281.091" stroke="black" stroke-width="6"/>
<path d="M180.653 207.858C170.349 236.999 180.653 317.091 237.788 360.591" stroke="black" stroke-width="6"/>
<path d="M66.7877 131.591C87.9877 65.5912 160.621 37.4245 194.288 31.5912C224.454 26.0912 297.988 31.7912 350.788 98.5912C403.588 165.391 384.454 242.424 368.288 272.591C356.454 299.258 313.288 354.191 235.288 360.591C157.288 366.991 101.121 308.258 82.7877 278.091C68.6211 256.758 45.5877 197.591 66.7877 131.591Z" stroke="black" stroke-width="4"/>
<path d="M194.629 33.5618L194.638 33.5603L194.646 33.5587C224.26 28.1595 296.978 33.739 349.219 99.8314C401.351 165.787 382.469 241.896 366.525 271.646L366.49 271.712L366.46 271.78C354.838 297.969 312.208 352.273 235.124 358.598C196.689 361.752 163.593 348.866 137.784 331.397C111.954 313.915 93.524 291.906 84.4969 277.052L84.476 277.018L84.4538 276.985C70.5378 256.029 47.7207 197.491 68.6919 132.203C79.1068 99.7792 102.179 76.571 126.941 60.7129C151.714 44.8485 178.034 36.4373 194.629 33.5618Z" stroke="black" stroke-width="4"/>
<path d="M180.074 208.393L187.294 182.22L214.942 176.328L232.978 195.266L225.316 220.955L197.635 226.854L180.074 208.393Z" fill="white" stroke="black" stroke-width="5"/>
<defs>
<linearGradient id="paint0_linear_4_2" x1="523.5" y1="78" x2="523.5" y2="313" gradientUnits="userSpaceOnUse">
<stop stop-color="#0057FF"/>
<stop offset="1"/>
</linearGradient>
<linearGradient id="paint1_linear_4_2" x1="159.459" y1="184.5" x2="159.459" y2="360" gradientUnits="userSpaceOnUse">
<stop/>
<stop offset="1" stop-color="#0057FF"/>
</linearGradient>
<linearGradient id="paint2_linear_4_2" x1="272.459" y1="32" x2="272.459" y2="218.5" gradientUnits="userSpaceOnUse">
<stop stop-color="#0057FF"/>
<stop offset="1"/>
</linearGradient>
</defs>
</svg>
